<svg width="22" height="21" viewBox="0 0 22 21" fill="none" xmlns="http://www.w3.org/2000/svg">
<path d="M20.5037 1.46043L19.8336 0.81351C19.6228 0.6115 19.3445 0.502506 19.049 0.506693C18.7535 0.510878 18.4783 0.627712 18.2734 0.835612L10.8468 8.37735L3.1951 1.04095C2.98457 0.838938 2.70603 0.730111 2.41061 0.734296C2.11519 0.738481 1.83977 0.855155 1.63504 1.06305L0.983843 1.72464C0.559833 2.15488 0.569885 2.84578 1.00624 3.26383L10.117 12.0306C10.3275 12.2324 10.6062 12.3728 10.9042 12.3686L10.9077 12.3685C11.2033 12.3643 11.4777 12.216 11.6823 12.0084L20.5262 3.01142C20.7311 2.80369 20.8412 2.52092 20.8372 2.22942C20.833 1.93776 20.7145 1.66212 20.5037 1.46043Z" fill="#34495E"/>
<path d="M20.5092 9.23786L19.8333 8.59688C19.6206 8.39674 19.3414 8.2902 19.0459 8.297C18.7505 8.3038 18.4763 8.42306 18.2733 8.63276L10.9155 16.2398L3.19755 8.97126C2.98519 8.77111 2.70568 8.66475 2.41031 8.67154C2.11494 8.67834 1.84059 8.79744 1.63775 9.00714L0.992586 9.67446C0.572496 10.1084 0.588815 10.7992 1.02894 11.2134L10.2188 19.8993C10.4312 20.0993 10.7111 20.2372 11.0091 20.2304L11.0126 20.2303C11.3081 20.2235 11.5812 20.0727 11.7839 19.8633L20.5458 10.7886C20.7488 10.5791 20.8563 10.2953 20.8497 10.0039C20.8428 9.71226 20.7219 9.43767 20.5092 9.23786Z" fill="#34495E"/>
</svg>
