<svg width="26" height="45" viewBox="0 0 26 45" fill="none" xmlns="http://www.w3.org/2000/svg">
<path d="M12.9658 0.275818C5.82925 0.275818 0.0234375 6.08163 0.0234375 13.2181V31.3335C0.0234375 38.47 5.82925 44.2758 12.9658 44.2758C20.1023 44.2758 25.9081 38.47 25.9081 31.3335V13.2181C25.9081 6.08163 20.1023 0.275818 12.9658 0.275818ZM23.2682 31.3335C23.2682 37.0141 18.6464 41.6359 12.9658 41.6359C7.28516 41.6359 2.66333 37.0141 2.66333 31.3335V13.2181C2.66333 7.53754 7.28516 2.91571 12.9658 2.91571C18.6464 2.91571 23.2682 7.53754 23.2682 13.2181V31.3335Z" fill="#34495E"/>
<path d="M12.9661 9.02869C12.237 9.02869 11.6461 9.61951 11.6461 10.3486V16.424C11.6461 17.1528 12.237 17.744 12.9661 17.744C13.6949 17.744 14.286 17.1528 14.286 16.424V10.3486C14.286 9.61951 13.6952 9.02869 12.9661 9.02869Z" fill="#34495E"/>
</svg>
