<svg width="21" height="20" viewBox="0 0 21 20" fill="none" xmlns="http://www.w3.org/2000/svg">
<path d="M20.6903 1.68241C20.2772 1.26934 19.6077 1.26949 19.1951 1.68255L9.7065 11.1727L5.33553 6.80155C4.92247 6.38863 4.25297 6.38848 3.84033 6.8014C3.42727 7.21433 3.42727 7.88382 3.84019 8.2966L8.95891 13.4156C9.15726 13.614 9.4261 13.7253 9.70664 13.7253C9.98705 13.7253 10.256 13.614 10.4544 13.4156L20.6905 3.1776C21.1032 2.76482 21.1032 2.09533 20.6903 1.68241Z" fill="#34495E"/>
<path d="M18.4073 8.45859C17.8234 8.45859 17.35 8.93185 17.35 9.51591V17.35H2.11465V2.11465H14.178C14.7621 2.11465 15.2353 1.64139 15.2353 1.05732C15.2353 0.473399 14.7621 0 14.178 0H1.05732C0.473399 0 0 0.473258 0 1.05732V18.4073C0 18.9914 0.473399 19.4646 1.05732 19.4646H18.4073C18.9914 19.4646 19.4646 18.9914 19.4646 18.4073V9.51591C19.4646 8.93199 18.9914 8.45859 18.4073 8.45859Z" fill="#34495E"/>
</svg>
